<mxfile host="app.diagrams.net" modified="2022-12-06T09:07:29.018Z" agent="5.0 (Macintosh; Intel Mac OS X 10_14_6) AppleWebKit/537.36 (KHTML, like Gecko) Chrome/107.0.0.0 Safari/537.36" version="20.6.0" etag="OgWwAsMSsBLg01poBfDW" type="github">
  <diagram id="_XVtS-1K8bZMeeotLgvq" name="第 1 页">
    <mxGraphModel dx="946" dy="534" grid="1" gridSize="10" guides="1" tooltips="1" connect="1" arrows="1" fold="1" page="1" pageScale="1" pageWidth="827" pageHeight="1169" math="0" shadow="0">
      <root>
        <mxCell id="0" />
        <mxCell id="1" parent="0" />
        <mxCell id="MFO9K4tf-34YZk9_oQ_L-1" value="事务发起者" style="rounded=1;whiteSpace=wrap;html=1;strokeWidth=2;fillWeight=4;hachureGap=8;hachureAngle=45;fillColor=#dae8fc;sketch=0;strokeColor=#6c8ebf;fontSize=15;fontStyle=1" vertex="1" parent="1">
          <mxGeometry x="40" y="160" width="120" height="80" as="geometry" />
        </mxCell>
        <mxCell id="MFO9K4tf-34YZk9_oQ_L-11" style="edgeStyle=orthogonalEdgeStyle;rounded=0;sketch=1;orthogonalLoop=1;jettySize=auto;html=1;entryX=0.5;entryY=0;entryDx=0;entryDy=0;entryPerimeter=0;strokeWidth=2;" edge="1" parent="1" source="MFO9K4tf-34YZk9_oQ_L-2" target="MFO9K4tf-34YZk9_oQ_L-5">
          <mxGeometry relative="1" as="geometry" />
        </mxCell>
        <mxCell id="MFO9K4tf-34YZk9_oQ_L-2" value="事务参与者" style="rounded=1;whiteSpace=wrap;html=1;strokeWidth=2;fillWeight=4;hachureGap=8;hachureAngle=45;fillColor=#dae8fc;sketch=0;strokeColor=#6c8ebf;fontSize=15;fontStyle=1" vertex="1" parent="1">
          <mxGeometry x="640" y="160" width="120" height="80" as="geometry" />
        </mxCell>
        <mxCell id="MFO9K4tf-34YZk9_oQ_L-3" value="" style="strokeWidth=2;html=1;shape=mxgraph.flowchart.database;whiteSpace=wrap;sketch=0;fillColor=#dae8fc;strokeColor=#6c8ebf;" vertex="1" parent="1">
          <mxGeometry x="40" y="360" width="120" height="80" as="geometry" />
        </mxCell>
        <mxCell id="MFO9K4tf-34YZk9_oQ_L-4" value="MQ" style="strokeWidth=2;html=1;shape=mxgraph.flowchart.direct_data;whiteSpace=wrap;sketch=0;fillColor=#dae8fc;strokeColor=#6c8ebf;fontSize=15;fontStyle=1" vertex="1" parent="1">
          <mxGeometry x="320" y="160" width="160" height="80" as="geometry" />
        </mxCell>
        <mxCell id="MFO9K4tf-34YZk9_oQ_L-5" value="" style="strokeWidth=2;html=1;shape=mxgraph.flowchart.database;whiteSpace=wrap;sketch=0;fillColor=#dae8fc;strokeColor=#6c8ebf;" vertex="1" parent="1">
          <mxGeometry x="640" y="360" width="120" height="80" as="geometry" />
        </mxCell>
        <mxCell id="MFO9K4tf-34YZk9_oQ_L-6" value="" style="endArrow=classic;html=1;rounded=0;strokeWidth=2;sketch=1;" edge="1" parent="1">
          <mxGeometry width="50" height="50" relative="1" as="geometry">
            <mxPoint x="170" y="190" as="sourcePoint" />
            <mxPoint x="310" y="190" as="targetPoint" />
          </mxGeometry>
        </mxCell>
        <mxCell id="MFO9K4tf-34YZk9_oQ_L-7" value="" style="endArrow=classic;html=1;rounded=0;strokeWidth=2;sketch=1;" edge="1" parent="1">
          <mxGeometry width="50" height="50" relative="1" as="geometry">
            <mxPoint x="310" y="210" as="sourcePoint" />
            <mxPoint x="170" y="210" as="targetPoint" />
          </mxGeometry>
        </mxCell>
        <mxCell id="MFO9K4tf-34YZk9_oQ_L-8" value="" style="endArrow=classic;html=1;rounded=0;strokeWidth=2;sketch=1;" edge="1" parent="1">
          <mxGeometry width="50" height="50" relative="1" as="geometry">
            <mxPoint x="490" y="189.5" as="sourcePoint" />
            <mxPoint x="630" y="189.5" as="targetPoint" />
          </mxGeometry>
        </mxCell>
        <mxCell id="MFO9K4tf-34YZk9_oQ_L-9" value="" style="endArrow=classic;html=1;rounded=0;strokeWidth=2;sketch=1;" edge="1" parent="1">
          <mxGeometry width="50" height="50" relative="1" as="geometry">
            <mxPoint x="630" y="209.5" as="sourcePoint" />
            <mxPoint x="490" y="209.5" as="targetPoint" />
          </mxGeometry>
        </mxCell>
        <mxCell id="MFO9K4tf-34YZk9_oQ_L-10" value="" style="endArrow=classic;html=1;rounded=0;strokeWidth=2;sketch=1;entryX=0.5;entryY=0;entryDx=0;entryDy=0;entryPerimeter=0;exitX=0.5;exitY=1;exitDx=0;exitDy=0;" edge="1" parent="1" source="MFO9K4tf-34YZk9_oQ_L-1" target="MFO9K4tf-34YZk9_oQ_L-3">
          <mxGeometry width="50" height="50" relative="1" as="geometry">
            <mxPoint x="100" y="250" as="sourcePoint" />
            <mxPoint x="270" y="280" as="targetPoint" />
          </mxGeometry>
        </mxCell>
        <mxCell id="MFO9K4tf-34YZk9_oQ_L-12" value="3" style="text;html=1;strokeColor=none;fillColor=none;align=center;verticalAlign=middle;whiteSpace=wrap;rounded=0;fontSize=15;" vertex="1" parent="1">
          <mxGeometry x="520" y="150" width="40" height="40" as="geometry" />
        </mxCell>
        <mxCell id="MFO9K4tf-34YZk9_oQ_L-13" value="2" style="text;html=1;strokeColor=none;fillColor=none;align=center;verticalAlign=middle;whiteSpace=wrap;rounded=0;fontSize=15;" vertex="1" parent="1">
          <mxGeometry x="200" y="150" width="40" height="40" as="geometry" />
        </mxCell>
        <mxCell id="MFO9K4tf-34YZk9_oQ_L-14" value="5" style="text;html=1;strokeColor=none;fillColor=none;align=center;verticalAlign=middle;whiteSpace=wrap;rounded=0;fontSize=15;" vertex="1" parent="1">
          <mxGeometry x="560" y="210" width="40" height="40" as="geometry" />
        </mxCell>
        <mxCell id="MFO9K4tf-34YZk9_oQ_L-15" value="1" style="text;html=1;strokeColor=none;fillColor=none;align=center;verticalAlign=middle;whiteSpace=wrap;rounded=0;fontSize=15;" vertex="1" parent="1">
          <mxGeometry x="100" y="280" width="40" height="40" as="geometry" />
        </mxCell>
        <mxCell id="MFO9K4tf-34YZk9_oQ_L-16" value="4" style="text;html=1;strokeColor=none;fillColor=none;align=center;verticalAlign=middle;whiteSpace=wrap;rounded=0;fontSize=15;" vertex="1" parent="1">
          <mxGeometry x="700" y="280" width="40" height="40" as="geometry" />
        </mxCell>
        <mxCell id="MFO9K4tf-34YZk9_oQ_L-17" value="6" style="text;html=1;strokeColor=none;fillColor=none;align=center;verticalAlign=middle;whiteSpace=wrap;rounded=0;fontSize=15;" vertex="1" parent="1">
          <mxGeometry x="240" y="210" width="40" height="40" as="geometry" />
        </mxCell>
        <mxCell id="MFO9K4tf-34YZk9_oQ_L-18" value="DB" style="text;html=1;strokeColor=none;fillColor=none;align=center;verticalAlign=middle;whiteSpace=wrap;rounded=0;fontSize=15;fontStyle=1" vertex="1" parent="1">
          <mxGeometry x="80" y="390" width="40" height="40" as="geometry" />
        </mxCell>
        <mxCell id="MFO9K4tf-34YZk9_oQ_L-19" value="DB" style="text;html=1;strokeColor=none;fillColor=none;align=center;verticalAlign=middle;whiteSpace=wrap;rounded=0;fontSize=15;fontStyle=1" vertex="1" parent="1">
          <mxGeometry x="680" y="390" width="40" height="40" as="geometry" />
        </mxCell>
      </root>
    </mxGraphModel>
  </diagram>
</mxfile>
